<svg xmlns="http://www.w3.org/2000/svg" viewBox="0 0 79.929801 25.3439" fill="#141114">
   <g>
      <path fill="#e32326" d="M 13.2582,8.67969 C 15.6801,6.11719 17.895,3.33594 19.5512,0 19.52,1.01563 19.8754,2.14454 19.5903,3.05079 19.4223,3.59766 18.8716,4.14844 18.4966,4.65625 17.3677,6.17188 16.0591,7.75391 14.8208,9.03516 14.6059,9.21094 14.4106,9.41016 14.2309,9.6211 10.27,13.4024 5.56687,16.6524 0.03562,18.7305 v -0.3477 c 0.40625,-0.5 1.03516,-0.7344 1.57032,-1.0195 3.86328,-2.0703 7.45312,-4.5313 10.47266,-7.50783 0.4102,-0.375 0.8047,-0.76562 1.1797,-1.17578"/>
      <g>
         <path d="M 0,8.76184 H 3.1208 V 25.1056 H 0 Z m 0,0"/>
         <path d="M 8.0818,8.75794 V 20.1954 c 0,1.5586 0.68,2.375 2.196,2.375 1.519,0 2.222,-0.8164 2.222,-2.375 V 8.75794 h 3.121 V 20.215 c 0,3.6015 -2.129,5.1172 -5.343,5.1172 -3.215,0 -5.321,-1.5157 -5.321,-5.1172 V 8.75794 Z m 0,0"/>
         <path d="m 27.3788,8.75794 v 2.76566 h -3.648 v 13.5859 h -3.125 V 11.5236 h -3.645 V 8.75794 Z m 0,0"/>
      </g>
   </g>
   <path d="m 37.0308,18.1408 c -0.312,-0.9219 -0.722,-1.3165 -1.371,-1.3165 -0.664,0 -1.031,0.4102 -1.031,1.0743 0,1.4765 4.176,1.5859 4.176,4.6523 0,1.6836 -1.152,2.793 -3.117,2.793 -1.52,0 -2.7,-0.8282 -3.2,-2.7539 l 1.844,-0.3907 c 0.215,1.1758 0.895,1.5977 1.453,1.5977 0.649,0 1.149,-0.4336 1.149,-1.168 0,-1.8437 -4.176,-1.8711 -4.176,-4.6093 0,-1.6836 1.004,-2.7422 2.945,-2.7422 1.668,0 2.684,0.9922 3.008,2.375 z m 0,0"/>
   <path d="m 39.9058,19.9845 c 0.071,-0.8242 0.407,-1.3945 0.907,-1.7617 0.492,-0.3672 1.156,-0.5313 1.832,-0.5313 1.82,0 2.515,0.9258 2.515,2.2383 v 4.6797 c 0,0.207 0.036,0.4102 0.09,0.6016 h -1.707 c -0.043,-0.1914 -0.07,-0.4219 -0.121,-0.7227 -0.504,0.5039 -1.183,0.8555 -2.035,0.8555 -1.031,0 -1.699,-0.5703 -1.699,-1.7617 0,-1.711 1.629,-2.4454 3.761,-3.0782 v -0.5429 c 0,-0.6368 -0.394,-0.8828 -0.882,-0.8828 -0.516,0 -0.95,0.3789 -0.95,0.9062 z m 3.543,1.6172 c -1.019,0.3516 -2.05,0.9219 -2.05,1.6953 0,0.4883 0.297,0.7695 0.757,0.7695 0.52,0 0.887,-0.2695 1.293,-0.6757 z m 0,0"/>
   <path d="m 46.7308,15.0079 h 1.711 v 1.5469 h -1.711 z m 1.711,10.1993 h -1.711 v -7.3789 h 1.711 z m 0,0"/>
   <path d="m 49.9488,25.2072 v -7.3789 h 1.653 v 0.8437 c 0.625,-0.543 1.207,-0.9805 1.91,-0.9805 1.047,0 1.59,0.5313 1.59,1.9024 v 5.6133 h -1.711 v -5.4258 c 0,-0.4883 -0.16,-0.8125 -0.621,-0.8125 -0.356,0 -0.746,0.3398 -1.114,0.664 v 5.5743 z m 0,0"/>
   <path d="m 55.6598,19.5392 v -1.3828 h 0.676 v -2.0117 h 1.711 v 2.0117 h 1.098 v 1.3828 h -1.098 v 3.7695 c 0,0.3672 0.309,0.543 0.774,0.543 0.121,0 0.23,0 0.339,-0.0117 v 1.4336 c -0.328,0.0586 -0.652,0.0703 -0.98,0.0703 -1.109,0 -1.844,-0.4063 -1.844,-1.4649 v -4.3398 z m 0,0"/>
   <path d="m 59.5898,20.7736 h 3.34 v 1.4922 h -3.34 z m 0,0"/>
   <path d="m 64.0308,15.4142 h 2.602 c 2.145,0 3.336,0.9258 3.422,3.3906 v 3.0117 c -0.086,2.4688 -1.277,3.3907 -3.422,3.3907 h -2.602 z m 1.868,8.1406 h 0.652 c 1.035,0 1.629,-0.4883 1.629,-1.9531 v -2.5781 c 0,-1.3828 -0.461,-1.9532 -1.629,-1.9532 h -0.652 z m 0,0"/>
   <path d="m 71.4218,15.0079 h 1.711 v 1.5469 h -1.711 z m 1.711,10.1993 h -1.711 v -7.3789 h 1.711 z m 0,0"/>
   <path d="m 76.2148,21.9259 v 0.9766 c 0,0.7304 0.434,1.0586 1.004,1.0586 0.719,0 1,-0.461 1,-1.0313 h 1.711 c -0.082,1.5195 -0.992,2.4141 -2.711,2.4141 -1.629,0 -2.715,-1.0039 -2.715,-2.6172 v -2.4141 c 0,-1.6172 1.086,-2.6172 2.715,-2.6172 1.586,0 2.711,1 2.711,2.5078 v 1.7227 z m 3.215,-6.9726 -1.996,1.9804 h -1.367 l 1.257,-1.9804 z m -1.211,5.5898 v -0.4102 c 0,-0.6484 -0.309,-1.0547 -1,-1.0547 -0.691,0 -1.004,0.4063 -1.004,1.0547 v 0.4102 z m 0,0"/>
</svg>