<?xml version="1.0" encoding="UTF-8"?>
<svg xmlns="http://www.w3.org/2000/svg" version="1.1" viewBox="0 0 482.3 328.4">
  <path fill="#04694e" d="M262.5,59.8c1.3.8,7.2-1.1,8.9,2.4s1.8,8.8-1,11-3.5.8-4.4,1.4,0,3.4.2,3.7,2.7.7,3.6,1.4,1.8,1.7,2.4,2.4.5,1.3.6,1.4c.9.6,6.4-.3,7.9-.3,2.4-.1,12.9,0,14.2-.9,4.6-7.8,10.1-16,13.6-24.4,1.1-2.5,1.9-3.1.7-5.8-2.1-4.9-8.8-11-5.6-17.1,2.4-4.5,7-2.4,10.4-.7,8.1,4.2,19.8,11.3,26.9,17,3.3,2.7,7.6,5.9,3.2,10.1s-14.4,0-18.3,2.4-6.1,9.3-7.5,11.7c-12.3,22.2-23.1,46.3-36,68-.7,1.2-1.4,2.6-2.3,3.6-1.4,1.7-4.1,3.6-5.1,5.6-1.9,3.4.4,11.7.7,15.8.2,2.4-.1,4.8,0,7.2l68.6-3.3,2.2,42.8-208.8,10.7-2.2-42.7,36.8-2.4c-.6-1.1-.9-2.5-1.1-3.7-1.2-10.9.8-22.1-1.5-32.8-19.7-23.3-39.7-51.9-32.3-84.3,9.4-41,62.4-55.8,96.6-36.1,11.7,6.7,18.4,16.9,24.7,28.4s3.3,7.3,3.7,7.6ZM172.4,79.4c0,0-1.7,0-2.3,0-5-1.1-5.6-13.2-.7-14.2,26-1.5,51.8-3.1,77.8-4.1.3,0,.9-.4.9-.6,0-.4-2.7-5.6-3.1-6.5-16.2-30-55.8-35.3-80.6-12.4-14.9,13.8-16.6,26.2-11.7,45.6,3.2,12.5,8.8,25,15.9,35.7.3-.6.2-1.7.2-2.4-.5-7.7-2.9-29.1.5-35.2.9-1.7,3.1-2.2,3.2-2.4s.1-3.3,0-3.5ZM285.7,96l-14.8.7,1.1,27.3,13.6-28ZM274.6,183.4h-2.6s-2.8,20.7-2.8,20.7l-4.9-20.1-2.3-.2,5.8,22.8h3.4s3.3-23.2,3.3-23.2ZM330.4,188.6c.3.3,2.3.2,2.2-1.2-.4-7-12-3.9-7.9,2.7s9,5.6,5,7.6c-3.2,1.5-3-2.4-3.4-2.7-.6-.5-2.3-.2-2,1.5.8,5,8,5.1,8.6,0s-8.4-6-6.4-10c.5-1.1,2.4-1,3.2-.2s.6,2.3.7,2.4ZM295.9,185c-3.6-3.8-10.4,1.4-6.1,6.3s6.1,3.2,5.4,5.7-3,2-3.9.5.6-2.4-2.6-2c.3,9.6,13.2,3.8,7.4-2.4-1.2-1.3-4.9-2.9-5.2-4.4-.6-3,2.8-3.7,3.8-1.5s-.6,2,2.5,1.7c.1-1.3-.3-3-1.2-3.9ZM224.8,185.6h-2.2c.5,7,.1,14.4,1.5,21.2,1.1,1.5,4.2,1.9,3.4-.7s-1.6.2-1.9-2.6l-.7-17.9ZM306.9,207.7c-1.4.2-3.9,0-5.5,0s-1,2.3,0,2.5c2.8-.5,9.7.5,8.9-4.4s-6.6-3.5-7.2-4.4c-1-1.5,1.8-1.4,2.3-1.6,3.7-1.1,3.5-4.6,3.2-7.8s-.9-3.1-.7-3.7,2.5-.4,1.3-2.8c-1.5-.1-2.7,1.6-3.3,1.7-1.1.2-2.2-.6-3.8,0s-2.2,2.4-2.3,3.6.2,4.6.4,5.5,1,1.8,1.1,2.6-.7,1.9-.3,3.2c.8,2.6,7.8,1.4,7,4.8s-.8.6-.9.6ZM247.7,194.1c.3.3,2.3.2,2.2-1.2-.3-6.7-11.5-4.3-8.1,2.5,1,2,8.9,5.1,5.3,7.6s-3.3-2.4-3.6-2.6-1.7,0-2,.3.4,2.5.7,3c2.1,3.6,8.7,1.8,7.9-3.1s-5.9-4.9-6.5-6.8,2.2-4.1,3.6-1.7.3,1.9.4,2ZM280.5,189c-4.7.6-3.8,6.4-3.6,10.1s.6,7.2,5,6.8c6.2-.6,2.9-8.9,3.5-12.7-.3-2.4-2.4-4.5-4.9-4.2ZM189.9,205c2.3,2.2,6.5,1.1,7.2-2s0-8.8-.4-10.5c-.7-3.4-5.6-4.5-7.7-1.6-1.1,1.6-.8,4.3-.8,6.3s.2,4.3.4,5.5.8,1.9,1.2,2.3ZM321.1,198.9c-.2-2.7.4-6.9-1.9-8.6-2.5-1.8-6.2-.9-6.8,2.2s0,9.1.5,10.8c1.3,5.1,9.9,3.1,8.3-2.6-3.7-.8-1.4,1.6-2.7,2.9s-2.9.5-3.4-.7-.6-4,.7-4h5.4ZM161,189.7c-3.2.6-8-.2-10.9.4s-1.2,2.3-.3,2.6,3.1-.8,4.2-.3l1.1,20.7h2.6s-1.1-20.7-1.1-20.7c.7-.2,4.3-.2,4.4-.4s0-1.8,0-2.2ZM207.5,210c.9,0,2.1.3,2.2-.9-.5-3.4.5-12.3-1.7-14.6-1.4-1.5-4.1-1.6-5.5,0-.3-1.1-1-.7-2-.7l.7,16.6,2.2-.6-.8-12.1c.2-1.6,1.9-2.7,3.3-1.9,1.4.9,1.1,12,1.5,14.2ZM165.8,193.7c-1.2,0-2.3-.2-2.2,1.3l1.1,21.6h2.2c.4-4.2-.9-8.9-.3-13.1.4-2.6,3.7-2.2,4,.4l.4,12.3h2.2c0-1.9,0-3.8,0-5.7s-.2-6.2-.6-7.8c-.8-3.3-3.6-3.6-6.4-2.3l-.4-6.6ZM185.3,211.1l-.9-13.7c-1.8-4.8-8.7-3.2-8.3,1.9,3.1.5,1.7-.6,2.8-1.8,1.9-2.3,4.3,1.1,3.5,3.3-2.5-.3-5.6.6-5.9,3.5s-.2,6.5,3.2,7.1,2.8-.9,3.2-.9,1.5,1.1,2.4.6ZM238.5,204.4c.2-.2-.2-5.3-.4-6.1-.9-4.4-8-4.7-8.5,1.1-.2,1.9.1,6.9.4,8.8.8,5.7,9.9,4.6,8.5-1.6-.5,0-2.1-.1-2.2,0-.2.2.7,2.3-1.2,3-2.9,1.2-3.1-2.9-2.8-4.9l6.3-.4ZM259.1,196.3h-5.4c-.6,0-.7,1.7-.6,2.2h5.9v-2.2ZM218.9,198.2l-5.5.4v2.2s5.9-.4,5.9-.4l-.4-2.2Z"/>
  <g fill="#d37c1b">
    <path d="M442.5,187.9c12.1-.1,21.3,5.3,22.6,18.2s1.2,27.4,1.8,40.6c.4,9.1,3.2,28.1,0,35.8-5.4,13.4-18,11.6-29.8,12.3-117.9,6.9-235.9,12.2-353.9,18.1-15.2.8-30.5,2.4-45.7,2.6-12.2.2-19.5-8.1-20.5-19.7-1.2-13.2-1.2-27.3-1.8-40.6-.4-9.2-3.3-27.5.4-35.3,6.3-13.4,21.5-10.7,33.7-11.3,21.1-1,42.3-1.9,63.5-2.6,3.3-.1,7-.8,10.3-.4s3.2,4.6-1.5,5.1c-8.4.9-19,.8-27.6,1.2-20,.9-41,.7-60.9,2.2-9.1.7-14.5,6.6-14.2,15.7.4,17.3,2,35.4,3,52.7s-1.6,21.1,7.9,26.1c5.8,3,17,1,23.7.7,103.6-4.8,207.2-10.5,310.7-15.9,25.7-1.3,51.5-2.1,77.2-3.7,10.2-.6,20.1-.6,22-13.1-.9-20.9-1.9-41.8-3.3-62.7-.5-7.2.7-14-6.5-18.6-4.3-2.7-6.8-2-11.4-1.9-25.3.5-50.7,2.4-76,3-2,0-6,.3-7.8,0-2.6-.5-2.4-4.7,1.1-5.2s11-.1,15.9-.3c22.3-.9,44.9-2.6,67.3-2.9Z"/>
    <path d="M39.6,241.7l1.8,35.4c1.7.4,13.2-.9,13.7-.4s.7,3.6-.2,3.6l-17.5.8-1.8-39.5h4.1Z"/>
    <path d="M62.4,273.6c.7,3.9,6.8,4,7.3-.5s-.3-1.4-.3-1.7c.2-1,3.1-.5,4-.6,2.1,10.1-13.1,12.9-14.7,3.4-.6-3.7-.7-10-.8-13.9s2.2-9.4,8-9.1c8.2.5,6.8,10.1,7.1,15.8-3.5.8-7.1.2-10.7.8.2,1.7-.3,4.1,0,5.7ZM69.1,263.8v-6.1c0-1.4-2.1-2.8-3.5-2.8-5.3-.2-3.8,5.8-3.5,9.3l7-.4Z"/>
    <path d="M92.7,259c-.6-.1-3.5.1-3.7,0s0-2.4-.6-3.3c-2.4-4.5-9.6-.2-5.5,4.7,3.4,4,12.5,5.8,9.9,13.7s-15.8,5.3-14.2-3.7c.6.1,3.6-.1,3.7,0s0,1.8,0,2.4c.6,3.9,7.9,3.8,7-1.8-.8-4.8-14.9-7-10.6-16.6,3.5-7.8,14.9-3.9,14,4.6Z"/>
    <path d="M122.2,237.2l1.8,33.3c-1.3,7.9-12.3,9.7-15.3,2.2-1.6-3.9-1.1-4.6,3.2-4.2-.8,6.3,8.1,6.9,8.1,1s-.3-1-.3-1.5c0-10.1-1.1-20.3-1.5-30.4l4.1-.4Z"/>
    <path d="M142.2,275.9c-.3-.2-.2-1.2-.6-1.4-3.8,4.1-10.3,1.2-11.2-4-1.3-7.9,1.7-13.1,10.2-12.3,0-2.9-.4-7.9-4.5-6.9-2.9.7-2.3,4.2-2.5,4.4s-3.1,0-3.7,0c-.7-9,11.3-11.3,13.9-2.7.8,7.3,1,14.7,1.2,22,.1,1.1-2.4,1.2-2.9.9ZM141.1,262c-3.1,0-6.7-.5-7,3.5-.2,2.6-.4,6.8,3,7.4,1.2.2,4.1-1.2,4.1-2.3v-8.7Z"/>
    <path d="M159.5,246.5c0,.6.1,3.6,0,3.7-.3.3-4.2-.6-4.8,2.8-.6,2.7,1.5,21.5.7,22.3s-2.7,0-3.3.4c-.9-7.6-1-15.3-1.3-22.9.9-4.1,4.5-6.7,8.7-6.3Z"/>
    <path d="M178,235.4l1.8,38.7c-1.7,0-3.2.6-3.5-1.5-3.6,4-10.3,1.5-11.2-3.6s-.8-8.9-.8-12.4c0-3.1-.4-6,1.9-8.5,2.1-2.3,5.8-3,8.5-1.3l-.4-11.4h3.7ZM174.9,269.9c.7-.7.8-1.4.9-2.2.3-3.1-.1-8.9-.4-12.2-.2-2.7-.6-6.4-4.2-6s-3.3,4.6-3.3,7.5c.1,3.9.6,7.8.8,11.7.9,2.7,4.2,3.2,6.1,1.2Z"/>
    <path d="M186.7,235.8c4.1-.9,4.7,4.7,1.2,5.3s-4.2-4.7-1.2-5.3Z"/>
    <path d="M189.8,245.4l1.1,23c.4,1.9,2.1,1,2.5,1.3s1,3.4-.5,3.6c-2.6.5-5.4-1.7-5.7-4.3l-1.1-23.8h3.7Z"/>
    <path d="M213.8,272.3h-3.7s-1.1-21.6-1.1-21.6c-.9-4.1-5.9-4-7,0,0,7.2.5,14.5,1.1,21.7-.3.9-3.4.8-3.7.4-.7-9.1-1.1-18.2-1.4-27.3.3-1.6,3.4-1.4,3.5.6,4.1-3.6,9.6-1.9,11.2,3.2l1.2,23Z"/>
    <path d="M233.3,251.6l-3.7.4c.9-4.3-4.4-7.5-6.7-3.6-2.9,4.9,6.1,8,8.8,10.9s3,8.8-1.4,11.5c-4.9,3-11.7-.9-11-6.5s2.5-1.7,3.4-1.1-.3,3.4,2.1,4.6c3,1.5,5.8-.5,5.3-3.8s-11.6-6.2-11.5-14c.2-9.7,15.9-8.8,14.8,1.6Z"/>
    <path d="M263.6,231l2.2,38.1c-.2.8-2.4.8-3,.6s-.5-1.1-.8-1.1-1.5,1.1-2,1.3c-3.5,1.4-7.5-.6-8.8-4.1-.6-1.8-.7-5.5-.8-7.7s-.6-8.1-.3-10.3c.7-4.7,6-7.8,10.3-5.4.5-1.4-.7-10.6-.3-11s3.5-.5,3.7-.4ZM256.1,245.4c-1.1.3-2.3,1.5-2.5,2.7.4,4.9.1,10.2.7,15.1.6,4.8,6.2,4.6,7.2.2-.6-4.5,0-9.7-.6-14.2s-1.9-4.5-4.9-3.8Z"/>
    <path d="M286.1,256.4l-10.7.4c0,3.2-.4,9.7,4.5,8.8s2.5-5.1,2.9-5.4,3.5-.5,3.7-.4c1.3,6.8-5.7,12.4-11.6,8.1-3.9-2.8-2.9-8.1-3.1-12.4s-1.1-8.3.2-11.2c2.8-6.1,12.5-4.9,13.6,1.8.2,1.1.5,4,.5,5v5.3ZM275,246.3c-.4,1.8.3,4.8,0,6.8h6.5s.8-.4.9-.4c.1-.2-.2-5-.3-5.6-.7-4.1-6.3-3.9-7-.8Z"/>
    <path d="M322.6,239.1c-.7-.1-3.9.1-4.1,0-.2-.2.3-4.4-1.9-6.4-3.7-3.5-9.5-1.1-9.9,4-.3,2.8.2,7.7.4,10.7s.3,8.3.8,11.8c.6,3.9,5.8,5.7,9,3.5s2.4-4.5,2.4-7.7l4-.3c2.9,10.3-10.7,17.7-17.5,9.2-3.3-4.2-2.6-15.6-2.8-21.2-.2-4.7-1.4-8.7,2.6-12.6,7-6.7,18.3-.2,17,9Z"/>
    <path d="M335.8,237.3c3.8-.1,7,3.1,7.5,6.7s.7,8.8.8,12.5c.1,4.7-1.2,9.5-6.9,9.8-8.5.5-7.6-8.4-7.9-13.9-.2-4.4-1.9-10.8,2.4-13.8,1-.7,2.9-1.4,4.1-1.4ZM335.4,241c-1.4.2-2.6,1.3-2.8,2.7.1,4.6,0,9.8.4,14.4.5,6.1,6.7,5.8,7.4,1.8-.3-5-.1-10.5-.7-15.5s-2.1-3.7-4.2-3.4Z"/>
    <path d="M364,245c-.8-.3-3,.5-3.3.2-.7-.5.1-4.2-2.8-4.9-6.5-1.5-4.3,6.8-4.2,10.4s-1,12.6,5.2,10.7c2.9-.9,2-5.1,2.2-5.4s3.7,0,3.7.2c1,6.3-5.2,11.4-11,8-3-1.8-3.5-4.4-3.8-7.6-.3-3.7-.8-10.9-.4-14.4,1.1-9,16-6.8,14.4,2.8Z"/>
    <path d="M385,263.4c-1.6-.3-3.4,1.3-3.3-1.1-.8-.2-1.1.7-1.7,1.1-4.6,2.2-9.5-.7-10.1-5.7-.9-8,1.8-12.4,10.3-11.6.3-3.2-.1-7.9-4.5-6.9-2.7.6-2.2,3.7-2.5,4s-3.5.5-3.7.4c-.9-9.9,13.3-11.3,14.4-1.3.7,6.1.3,13,.7,19.2,0,.7.4,1.3.4,2ZM380.6,249.8c-2.9,0-6.6-.6-7,3.1-.5,3.8,0,8.8,5.1,7.3,3.9-1.2,1.4-7.4,1.9-10.4Z"/>
    <path d="M405.6,232.5c1.4,4.2-.2,2.8-2,4.1s.3,3.4.5,4.9c.3,2.3.7,8.1.2,10.1-.6,2.2-3.2,4.8-5.6,5.1s-4.2-.9-3.9,2.1.4.7.9,1c4,2.3,13,1.7,11.5,9.2-1.2,6.1-8.3,5-13,5.1-1.2,0-2.8,1.1-3.1-.5s0-2.6,0-2.7c.7-.8,10.9,0,11.8-1.4,3.3-5.3-10-4.4-11.6-8.3-1.1-2.8,1-4.8.8-5.9s-1.4-1.7-1.8-2.6c-.8-1.9-1.1-8.5-1.1-10.7,0-3.6,3.2-7,6.8-7.2s3.1.6,4,.3,3.3-3.2,5.4-2.5ZM395.6,238.4c-1.4.3-2.3,2.1-2.5,3.5s.2,6.2.4,7.7c.6,4.7,5.4,5.4,7.3,1.1-.5-4,1.5-13.7-5.2-12.2Z"/>
    <path d="M423.4,261.6l-1.1-21.6c-.6-4.1-5.9-4.3-7-.4,0,7.4.6,14.9,1.1,22.3-.9-.1-3.4.4-3.9-.3l-1.3-27.7c1.9,0,3-.7,3.5,1.5,4.3-4.5,10.5-1.4,11.3,4.2l1.1,21c-.3,1.6-2.5.7-3.7.9Z"/>
    <path d="M436.7,248.7v5.3c0,.4,1,2.2,1.5,2.6,2.3,2,5.7.1,5.9-2.7s-.6-1.8,0-2.2c2-.2,3.6-.9,3.7,1.5.4,9.2-13.8,11.3-14.8.4-.4-4.1-.8-10-.8-14,0-5.5,5.5-9.1,10.6-6.8,5.6,2.5,4,10,4.5,14.9-.1.5-.4.5-.9.6-2.6.5-7,0-9.8.4ZM443.3,244.6v-6.1c0,0-.8-1.4-1-1.6-1.4-1.6-4.1-1.7-5.5,0-2,2.4-.1,5.4-.6,8.1l7-.4Z"/>
  </g>
  <g fill="#fff">
    <path d="M161,189.7c0,.5.1,2.1,0,2.2-.2.2-3.7.1-4.4.4l1.1,20.6h-2.6s-1.1-20.7-1.1-20.7c-1.1-.4-3.4.6-4.2.3s-1.1-2.3.3-2.6c2.9-.5,7.7.2,10.9-.4Z"/>
    <path d="M165.8,193.7l.4,6.6c2.7-1.3,5.5-1,6.4,2.3.4,1.6.6,5.9.6,7.8s0,3.8,0,5.7h-2.2s-.4-12.3-.4-12.3c-.3-2.5-3.6-3-4-.4-.6,4.2.8,8.8.3,13.1h-2.2s-1.1-21.6-1.1-21.6c0-1.5,1.1-1.4,2.2-1.3Z"/>
    <path d="M185.3,211.1c-.9.5-2.1-.6-2.4-.6-.4,0-1.1,1.3-3.2.9-3.4-.6-3.6-4.3-3.2-7.1s3.4-3.8,5.9-3.5c.8-2.2-1.6-5.6-3.5-3.3s.3,2.3-2.8,1.8c-.4-5.1,6.5-6.7,8.3-1.9l.9,13.7ZM182.8,202.9c-4.3-.5-5,1.5-3.9,5.2s3.1,1.4,3.7,0,0-3.7.2-5.2Z"/>
    <path d="M189.9,205c-.4-.4-1.1-1.7-1.2-2.3-.2-1.2-.4-4.1-.4-5.5,0-2-.4-4.7.8-6.3,2.1-3,7-1.8,7.7,1.6s.7,8.9.4,10.5c-.6,3.1-4.9,4.2-7.2,2ZM191.5,191.6c-.8.2-.9.8-1,1.6-.3,2,0,7.2.4,9.2s2.4,2.3,3.5,1-.2-7.8.1-10.2c-.4-1.4-1.7-2-3.1-1.6Z"/>
    <path d="M207.5,210c-.4-2.2,0-13.3-1.5-14.2-1.5-.9-3.2.3-3.3,1.9l.8,12.1-2.2.6-.7-16.6c1,0,1.7-.4,2,.7,1.4-1.6,4.1-1.5,5.5,0,2.2,2.3,1.1,11.2,1.7,14.6-.1,1.2-1.3.9-2.2.9Z"/>
    <polygon points="218.9 198.2 219.3 200.4 213.4 200.7 213.4 198.5 218.9 198.2"/>
    <path d="M224.8,185.6l.7,17.9c.3,2.8,1.8,2.3,1.9,2.6.8,2.7-2.3,2.2-3.4.7-1.3-6.9-.9-14.2-1.5-21.2h2.2Z"/>
    <path d="M238.5,204.4l-6.3.4c-.3,2,0,6.1,2.8,4.9,1.9-.8,1-2.8,1.2-3s1.8,0,2.2,0c1.4,6.2-7.7,7.4-8.5,1.6-.3-1.9-.6-7-.4-8.8.5-5.8,7.6-5.4,8.5-1.1s.6,5.8.4,6.1ZM236.3,202.6c0-1.8.2-5.4-2.4-5.4-2.9,0-1.9,3.4-2,5.4h4.4Z"/>
    <path d="M247.7,194.1c0,0,0-1.3-.4-2-1.3-2.4-4.4-.9-3.6,1.7s6,3.6,6.5,6.8c.8,5-5.9,6.7-7.9,3.1s-1-2.6-.7-3,1.8-.5,2-.3.5,4.7,3.6,2.6-4.3-5.6-5.3-7.6c-3.5-6.8,7.7-9.2,8.1-2.5,0,1.5-1.8,1.6-2.2,1.2Z"/>
    <path d="M259.1,196.3v2.2h-5.9c0-.5,0-2.2.6-2.2h5.4Z"/>
    <polygon points="274.6 183.4 271.3 206.6 267.9 206.6 262.1 183.8 264.4 184 269.3 204.1 272.1 183.4 274.6 183.4"/>
    <path d="M280.5,189c2.4-.3,4.6,1.8,4.9,4.2-.6,3.9,2.7,12.2-3.5,12.7s-4.8-3.5-5-6.8-1.1-9.4,3.6-10.1ZM279.5,191.6c-.8.9-.5,9.6,0,11.1s3.6,1.2,4-.7c-.3-2,0-8.9-.9-10.1s-2.3-1-3-.3Z"/>
    <path d="M295.9,185c.9.9,1.3,2.7,1.2,3.9-3.1.3-1.7-.1-2.5-1.7s-4.4-1.5-3.8,1.5c.3,1.5,4,3.1,5.2,4.4,5.8,6.2-7.1,12-7.4,2.4,3.2-.4,1.7.5,2.6,2s3.4,1.3,3.9-.5c.7-2.6-4-4.1-5.4-5.7-4.2-4.9,2.5-10.1,6.1-6.3Z"/>
    <path  d="M306.9,207.7c.2,0,.9-.4.9-.6.8-3.4-6.2-2.2-7-4.8s.3-2.2.3-3.2-.9-1.6-1.1-2.6-.4-4.6-.4-5.5c0-1.2,1.1-3.2,2.3-3.6s2.7,0,3.8,0,1.8-1.8,3.3-1.7c1.3,2.4-1.1,2.2-1.3,2.8s.6,2.7.7,3.7c.2,3.3.5,6.7-3.2,7.8s-3.3,0-2.3,1.6c.7,1,6.6.4,7.2,4.4s-6,3.9-8.9,4.4c-1-.2-.6-2.5,0-2.5,1.6,0,4.1.2,5.5,0ZM305.9,197.3c.6-.6.6-5.3.4-6.3-.6-2.7-3.9-2.4-4.3,0s.5,6,.8,6.3c.6.6,2.5.6,3.1,0Z"/>
    <path d="M321.1,198.9h-5.4c-1.3,0-1.1,3.1-.7,4s2.5,1.5,3.4.7c1.3-1.3-1-3.6,2.7-2.9,1.6,5.7-7,7.7-8.3,2.6-.4-1.7-.8-9.1-.5-10.8.6-3.1,4.4-4,6.8-2.2,2.3,1.7,1.7,5.9,1.9,8.6ZM318.6,196.7c.3-2,.1-6.4-2.9-5s-1.5,4.1-.9,5,3-.4,3.9,0Z"/>
    <path d="M330.4,188.6c0,0,0-1.6-.7-2.4s-2.6-.9-3.2.2c-2,4,7.1,5,6.4,10s-7.9,4.9-8.6,0,1.4-2,2-1.5.2,4.3,3.4,2.7c4-1.9-4-6.1-5-7.6-4.1-6.6,7.6-9.7,7.9-2.7,0,1.5-1.9,1.6-2.2,1.2Z"/>
    <path fill="#04694e" d="M182.8,202.9c-.2,1.5.4,3.8-.2,5.2s-3.2,1.6-3.7,0c-1.1-3.7-.4-5.7,3.9-5.2Z"/>
    <path fill="#04694e" d="M191.5,191.6c1.4-.4,2.7.2,3.1,1.6-.3,2.4,1.3,8.4-.1,10.2s-3.2.7-3.5-1-.7-7.3-.4-9.2c0-.7.2-1.3,1-1.6Z"/>
    <path fill="#04694e" d="M236.3,202.6h-4.4c.1-1.9-.8-5.4,2-5.4,2.6,0,2.4,3.5,2.4,5.4Z"/>
    <path fill="#04694e" d="M279.5,191.6c.7-.7,2.4-.5,3,.3,1,1.2.6,8.1.9,10.1-.4,1.9-3.3,2.4-4,.7s-.8-10.2,0-11.1Z"/>
    <path fill="#04694e" d="M305.9,197.3c-.6.6-2.6.6-3.1,0s-.9-5.7-.8-6.3c.4-2.3,3.7-2.7,4.3,0s.3,5.6-.4,6.3Z"/>
    <path fill="#04694e" d="M318.6,196.7c-.9-.4-3.4.8-3.9,0s-.4-4.4.9-5c3.1-1.4,3.2,3,2.9,5Z"/>
  </g>
</svg>
